<mxfile host="65bd71144e">
    <diagram id="tqB4lpkKbCLMTL8t5MLy" name="Страница 1">
        <mxGraphModel dx="1127" dy="970" grid="1" gridSize="10" guides="1" tooltips="1" connect="1" arrows="1" fold="1" page="1" pageScale="1" pageWidth="827" pageHeight="1169" math="0" shadow="0">
            <root>
                <mxCell id="0"/>
                <mxCell id="1" parent="0"/>
                <mxCell id="2" value="" style="rounded=0;whiteSpace=wrap;html=1;" vertex="1" parent="1">
                    <mxGeometry x="10" y="10" width="610" height="720" as="geometry"/>
                </mxCell>
                <mxCell id="3" value="Command" style="text;html=1;strokeColor=none;fillColor=none;align=center;verticalAlign=middle;whiteSpace=wrap;rounded=0;fontSize=15;" vertex="1" parent="1">
                    <mxGeometry x="10" y="10" width="90" height="30" as="geometry"/>
                </mxCell>
                <mxCell id="8" value="CommandsHistory" style="swimlane;fontStyle=1;align=center;verticalAlign=top;childLayout=stackLayout;horizontal=1;startSize=26;horizontalStack=0;resizeParent=1;resizeParentMax=0;resizeLast=0;collapsible=1;marginBottom=0;fontSize=15;" vertex="1" parent="1">
                    <mxGeometry x="710" y="20" width="290" height="190" as="geometry"/>
                </mxCell>
                <mxCell id="9" value="- mementos: CommandMemento[]" style="text;strokeColor=none;fillColor=none;align=left;verticalAlign=top;spacingLeft=4;spacingRight=4;overflow=hidden;rotatable=0;points=[[0,0.5],[1,0.5]];portConstraint=eastwest;fontSize=15;" vertex="1" parent="8">
                    <mxGeometry y="26" width="290" height="26" as="geometry"/>
                </mxCell>
                <mxCell id="10" value="" style="line;strokeWidth=1;fillColor=none;align=left;verticalAlign=middle;spacingTop=-1;spacingLeft=3;spacingRight=3;rotatable=0;labelPosition=right;points=[];portConstraint=eastwest;strokeColor=inherit;fontSize=15;" vertex="1" parent="8">
                    <mxGeometry y="52" width="290" height="8" as="geometry"/>
                </mxCell>
                <mxCell id="11" value="+ loadHistory(&#10;    serizalizedHistory: JSON&#10;): void&#10;+ downloadHistory(): JSON&#10;+ pushCommand(&#10;    memento: CommandMemento&#10;): void" style="text;strokeColor=none;fillColor=none;align=left;verticalAlign=top;spacingLeft=4;spacingRight=4;overflow=hidden;rotatable=0;points=[[0,0.5],[1,0.5]];portConstraint=eastwest;fontSize=15;" vertex="1" parent="8">
                    <mxGeometry y="60" width="290" height="130" as="geometry"/>
                </mxCell>
                <mxCell id="12" value="CommandMemento" style="swimlane;fontStyle=1;align=center;verticalAlign=top;childLayout=stackLayout;horizontal=1;startSize=26;horizontalStack=0;resizeParent=1;resizeParentMax=0;resizeLast=0;collapsible=1;marginBottom=0;fontSize=15;" vertex="1" parent="1">
                    <mxGeometry x="760" y="500" width="210" height="178" as="geometry"/>
                </mxCell>
                <mxCell id="13" value="+ text: string&#10;+ selection: [number, number]" style="text;strokeColor=none;fillColor=none;align=left;verticalAlign=top;spacingLeft=4;spacingRight=4;overflow=hidden;rotatable=0;points=[[0,0.5],[1,0.5]];portConstraint=eastwest;fontSize=15;" vertex="1" parent="12">
                    <mxGeometry y="26" width="210" height="44" as="geometry"/>
                </mxCell>
                <mxCell id="14" value="" style="line;strokeWidth=1;fillColor=none;align=left;verticalAlign=middle;spacingTop=-1;spacingLeft=3;spacingRight=3;rotatable=0;labelPosition=right;points=[];portConstraint=eastwest;strokeColor=inherit;fontSize=15;" vertex="1" parent="12">
                    <mxGeometry y="70" width="210" height="8" as="geometry"/>
                </mxCell>
                <mxCell id="15" value="+ serialize(): JSON&#10;+ deserialize(&#10;    obj: JSON&#10;): Command" style="text;strokeColor=none;fillColor=none;align=left;verticalAlign=top;spacingLeft=4;spacingRight=4;overflow=hidden;rotatable=0;points=[[0,0.5],[1,0.5]];portConstraint=eastwest;fontSize=15;" vertex="1" parent="12">
                    <mxGeometry y="78" width="210" height="100" as="geometry"/>
                </mxCell>
                <mxCell id="16" value="TextEditorInvoker" style="swimlane;fontStyle=1;align=center;verticalAlign=top;childLayout=stackLayout;horizontal=1;startSize=26;horizontalStack=0;resizeParent=1;resizeParentMax=0;resizeLast=0;collapsible=1;marginBottom=0;fontSize=15;" vertex="1" parent="1">
                    <mxGeometry x="120" y="20" width="280" height="180" as="geometry"/>
                </mxCell>
                <mxCell id="17" value="- history: CommandHistory&#10;- textEditor: TextEditor" style="text;strokeColor=none;fillColor=none;align=left;verticalAlign=top;spacingLeft=4;spacingRight=4;overflow=hidden;rotatable=0;points=[[0,0.5],[1,0.5]];portConstraint=eastwest;fontSize=15;" vertex="1" parent="16">
                    <mxGeometry y="26" width="280" height="44" as="geometry"/>
                </mxCell>
                <mxCell id="18" value="" style="line;strokeWidth=1;fillColor=none;align=left;verticalAlign=middle;spacingTop=-1;spacingLeft=3;spacingRight=3;rotatable=0;labelPosition=right;points=[];portConstraint=eastwest;strokeColor=inherit;fontSize=15;" vertex="1" parent="16">
                    <mxGeometry y="70" width="280" height="8" as="geometry"/>
                </mxCell>
                <mxCell id="19" value="+ deleteText(): void&#10;+ toUpperCase(): void&#10;+ input(text: string): void&#10;+ undo(): void&#10;+ selectText(start: number, end: number): void" style="text;strokeColor=none;fillColor=none;align=left;verticalAlign=top;spacingLeft=4;spacingRight=4;overflow=hidden;rotatable=0;points=[[0,0.5],[1,0.5]];portConstraint=eastwest;fontSize=15;" vertex="1" parent="16">
                    <mxGeometry y="78" width="280" height="102" as="geometry"/>
                </mxCell>
                <mxCell id="20" value="" style="endArrow=open;endFill=1;endSize=12;html=1;fontSize=15;edgeStyle=orthogonalEdgeStyle;" edge="1" parent="1" source="8" target="56">
                    <mxGeometry width="160" relative="1" as="geometry">
                        <mxPoint x="370" y="450" as="sourcePoint"/>
                        <mxPoint x="530" y="450" as="targetPoint"/>
                        <Array as="points">
                            <mxPoint x="870" y="250"/>
                            <mxPoint x="870" y="250"/>
                        </Array>
                    </mxGeometry>
                </mxCell>
                <mxCell id="22" value="TextEditor" style="swimlane;fontStyle=1;align=center;verticalAlign=top;childLayout=stackLayout;horizontal=1;startSize=26;horizontalStack=0;resizeParent=1;resizeParentMax=0;resizeLast=0;collapsible=1;marginBottom=0;fontSize=15;html=1;" vertex="1" parent="1">
                    <mxGeometry x="440" y="780" width="250" height="260" as="geometry"/>
                </mxCell>
                <mxCell id="23" value="- text: string&lt;br&gt;- selection: [number, number]" style="text;strokeColor=none;fillColor=none;align=left;verticalAlign=top;spacingLeft=4;spacingRight=4;overflow=hidden;rotatable=0;points=[[0,0.5],[1,0.5]];portConstraint=eastwest;fontSize=15;html=1;" vertex="1" parent="22">
                    <mxGeometry y="26" width="250" height="54" as="geometry"/>
                </mxCell>
                <mxCell id="24" value="" style="line;strokeWidth=1;fillColor=none;align=left;verticalAlign=middle;spacingTop=-1;spacingLeft=3;spacingRight=3;rotatable=0;labelPosition=right;points=[];portConstraint=eastwest;strokeColor=inherit;fontSize=15;html=1;" vertex="1" parent="22">
                    <mxGeometry y="80" width="250" height="8" as="geometry"/>
                </mxCell>
                <mxCell id="25" value="+ insertText(cursor: number): void&lt;br&gt;+ printText(): void&lt;br&gt;+ changeText(text: string): void&lt;br&gt;+ setSelection(&lt;br&gt;&lt;span style=&quot;white-space: pre;&quot;&gt;&#9;&lt;/span&gt;start: number, &lt;br&gt;&lt;span style=&quot;white-space: pre;&quot;&gt;&#9;&lt;/span&gt;end: number&lt;br&gt;): void&lt;br&gt;+ getSelection(): [number, number]" style="text;strokeColor=none;fillColor=none;align=left;verticalAlign=top;spacingLeft=4;spacingRight=4;overflow=hidden;rotatable=0;points=[[0,0.5],[1,0.5]];portConstraint=eastwest;fontSize=15;html=1;" vertex="1" parent="22">
                    <mxGeometry y="88" width="250" height="172" as="geometry"/>
                </mxCell>
                <mxCell id="27" value="" style="endArrow=diamondThin;endFill=0;endSize=24;html=1;fontSize=15;edgeStyle=orthogonalEdgeStyle;" edge="1" parent="1" source="22" target="16">
                    <mxGeometry width="160" relative="1" as="geometry">
                        <mxPoint x="470" y="460" as="sourcePoint"/>
                        <mxPoint x="630" y="460" as="targetPoint"/>
                        <Array as="points">
                            <mxPoint x="640" y="100"/>
                        </Array>
                    </mxGeometry>
                </mxCell>
                <mxCell id="28" value="" style="endArrow=diamondThin;endFill=0;endSize=24;html=1;fontSize=15;edgeStyle=orthogonalEdgeStyle;" edge="1" parent="1" source="8" target="16">
                    <mxGeometry width="160" relative="1" as="geometry">
                        <mxPoint x="742" y="71" as="sourcePoint"/>
                        <mxPoint x="217.45833333333326" y="448" as="targetPoint"/>
                        <Array as="points">
                            <mxPoint x="580" y="100"/>
                            <mxPoint x="580" y="100"/>
                        </Array>
                    </mxGeometry>
                </mxCell>
                <mxCell id="30" value="UpperCaseCommand" style="swimlane;fontStyle=1;align=center;verticalAlign=top;childLayout=stackLayout;horizontal=1;startSize=26;horizontalStack=0;resizeParent=1;resizeParentMax=0;resizeLast=0;collapsible=1;marginBottom=0;fontSize=15;html=1;" vertex="1" parent="1">
                    <mxGeometry x="30" y="460" width="180" height="104" as="geometry"/>
                </mxCell>
                <mxCell id="31" value="&amp;nbsp;- receiver: TextEditor&lt;br&gt;# cancellable: boolean" style="text;strokeColor=none;fillColor=none;align=left;verticalAlign=top;spacingLeft=4;spacingRight=4;overflow=hidden;rotatable=0;points=[[0,0.5],[1,0.5]];portConstraint=eastwest;fontSize=15;html=1;" vertex="1" parent="30">
                    <mxGeometry y="26" width="180" height="44" as="geometry"/>
                </mxCell>
                <mxCell id="32" value="" style="line;strokeWidth=1;fillColor=none;align=left;verticalAlign=middle;spacingTop=-1;spacingLeft=3;spacingRight=3;rotatable=0;labelPosition=right;points=[];portConstraint=eastwest;strokeColor=inherit;fontSize=15;html=1;" vertex="1" parent="30">
                    <mxGeometry y="70" width="180" height="8" as="geometry"/>
                </mxCell>
                <mxCell id="33" value="+ execute(): void" style="text;strokeColor=none;fillColor=none;align=left;verticalAlign=top;spacingLeft=4;spacingRight=4;overflow=hidden;rotatable=0;points=[[0,0.5],[1,0.5]];portConstraint=eastwest;fontSize=15;html=1;" vertex="1" parent="30">
                    <mxGeometry y="78" width="180" height="26" as="geometry"/>
                </mxCell>
                <mxCell id="34" value="InputCommand" style="swimlane;fontStyle=1;align=center;verticalAlign=top;childLayout=stackLayout;horizontal=1;startSize=26;horizontalStack=0;resizeParent=1;resizeParentMax=0;resizeLast=0;collapsible=1;marginBottom=0;fontSize=15;html=1;" vertex="1" parent="1">
                    <mxGeometry x="430" y="460" width="180" height="104" as="geometry"/>
                </mxCell>
                <mxCell id="35" value="&amp;nbsp;- receiver: TextEditor&lt;br&gt;# cancellable: boolean" style="text;strokeColor=none;fillColor=none;align=left;verticalAlign=top;spacingLeft=4;spacingRight=4;overflow=hidden;rotatable=0;points=[[0,0.5],[1,0.5]];portConstraint=eastwest;fontSize=15;html=1;" vertex="1" parent="34">
                    <mxGeometry y="26" width="180" height="44" as="geometry"/>
                </mxCell>
                <mxCell id="36" value="" style="line;strokeWidth=1;fillColor=none;align=left;verticalAlign=middle;spacingTop=-1;spacingLeft=3;spacingRight=3;rotatable=0;labelPosition=right;points=[];portConstraint=eastwest;strokeColor=inherit;fontSize=15;html=1;" vertex="1" parent="34">
                    <mxGeometry y="70" width="180" height="8" as="geometry"/>
                </mxCell>
                <mxCell id="37" value="+ execute(): void" style="text;strokeColor=none;fillColor=none;align=left;verticalAlign=top;spacingLeft=4;spacingRight=4;overflow=hidden;rotatable=0;points=[[0,0.5],[1,0.5]];portConstraint=eastwest;fontSize=15;html=1;" vertex="1" parent="34">
                    <mxGeometry y="78" width="180" height="26" as="geometry"/>
                </mxCell>
                <mxCell id="38" value="DeleteCommand" style="swimlane;fontStyle=1;align=center;verticalAlign=top;childLayout=stackLayout;horizontal=1;startSize=26;horizontalStack=0;resizeParent=1;resizeParentMax=0;resizeLast=0;collapsible=1;marginBottom=0;fontSize=15;html=1;" vertex="1" parent="1">
                    <mxGeometry x="234" y="460" width="180" height="104" as="geometry"/>
                </mxCell>
                <mxCell id="39" value="&amp;nbsp;- receiver: TextEditor&lt;br&gt;# cancellable: boolean" style="text;strokeColor=none;fillColor=none;align=left;verticalAlign=top;spacingLeft=4;spacingRight=4;overflow=hidden;rotatable=0;points=[[0,0.5],[1,0.5]];portConstraint=eastwest;fontSize=15;html=1;" vertex="1" parent="38">
                    <mxGeometry y="26" width="180" height="44" as="geometry"/>
                </mxCell>
                <mxCell id="40" value="" style="line;strokeWidth=1;fillColor=none;align=left;verticalAlign=middle;spacingTop=-1;spacingLeft=3;spacingRight=3;rotatable=0;labelPosition=right;points=[];portConstraint=eastwest;strokeColor=inherit;fontSize=15;html=1;" vertex="1" parent="38">
                    <mxGeometry y="70" width="180" height="8" as="geometry"/>
                </mxCell>
                <mxCell id="41" value="+ execute(): void" style="text;strokeColor=none;fillColor=none;align=left;verticalAlign=top;spacingLeft=4;spacingRight=4;overflow=hidden;rotatable=0;points=[[0,0.5],[1,0.5]];portConstraint=eastwest;fontSize=15;html=1;" vertex="1" parent="38">
                    <mxGeometry y="78" width="180" height="26" as="geometry"/>
                </mxCell>
                <mxCell id="43" value="Extends" style="endArrow=block;endSize=16;endFill=0;html=1;fontSize=15;edgeStyle=orthogonalEdgeStyle;" edge="1" parent="1" source="34" target="52">
                    <mxGeometry width="160" relative="1" as="geometry">
                        <mxPoint x="470" y="420" as="sourcePoint"/>
                        <mxPoint x="630" y="420" as="targetPoint"/>
                        <Array as="points">
                            <mxPoint x="520" y="290"/>
                        </Array>
                    </mxGeometry>
                </mxCell>
                <mxCell id="44" value="Extends" style="endArrow=block;endSize=16;endFill=0;html=1;fontSize=15;edgeStyle=orthogonalEdgeStyle;" edge="1" parent="1" source="30" target="52">
                    <mxGeometry width="160" relative="1" as="geometry">
                        <mxPoint x="215.74766355140196" y="236" as="sourcePoint"/>
                        <mxPoint x="198.08411214953276" y="250" as="targetPoint"/>
                        <Array as="points">
                            <mxPoint x="120" y="420"/>
                            <mxPoint x="380" y="420"/>
                            <mxPoint x="380" y="290"/>
                        </Array>
                    </mxGeometry>
                </mxCell>
                <mxCell id="45" value="Extends" style="endArrow=block;endSize=16;endFill=0;html=1;fontSize=15;edgeStyle=orthogonalEdgeStyle;" edge="1" parent="1" source="38" target="52">
                    <mxGeometry width="160" relative="1" as="geometry">
                        <mxPoint x="131.0386473429951" y="136" as="sourcePoint"/>
                        <mxPoint x="133.79227053140107" y="250" as="targetPoint"/>
                        <Array as="points">
                            <mxPoint x="380" y="290"/>
                        </Array>
                    </mxGeometry>
                </mxCell>
                <mxCell id="47" value="Use" style="endArrow=open;endSize=12;dashed=1;html=1;fontSize=15;" edge="1" parent="1" source="16" target="52">
                    <mxGeometry width="160" relative="1" as="geometry">
                        <mxPoint x="470" y="420" as="sourcePoint"/>
                        <mxPoint x="630" y="420" as="targetPoint"/>
                    </mxGeometry>
                </mxCell>
                <mxCell id="49" value="" style="endArrow=open;endFill=1;endSize=12;html=1;fontSize=15;edgeStyle=orthogonalEdgeStyle;" edge="1" parent="1" source="30" target="22">
                    <mxGeometry width="160" relative="1" as="geometry">
                        <mxPoint x="470" y="420" as="sourcePoint"/>
                        <mxPoint x="630" y="420" as="targetPoint"/>
                        <Array as="points">
                            <mxPoint x="90" y="720"/>
                            <mxPoint x="565" y="720"/>
                        </Array>
                    </mxGeometry>
                </mxCell>
                <mxCell id="50" value="" style="endArrow=open;endFill=1;endSize=12;html=1;fontSize=15;edgeStyle=orthogonalEdgeStyle;" edge="1" parent="1" source="38" target="22">
                    <mxGeometry width="160" relative="1" as="geometry">
                        <mxPoint x="205.93253968253975" y="536" as="sourcePoint"/>
                        <mxPoint x="450" y="674.2134831460673" as="targetPoint"/>
                        <Array as="points">
                            <mxPoint x="300" y="720"/>
                        </Array>
                    </mxGeometry>
                </mxCell>
                <mxCell id="51" value="" style="endArrow=open;endFill=1;endSize=12;html=1;fontSize=15;edgeStyle=orthogonalEdgeStyle;" edge="1" parent="1" source="34" target="22">
                    <mxGeometry width="160" relative="1" as="geometry">
                        <mxPoint x="371.80555555555566" y="536" as="sourcePoint"/>
                        <mxPoint x="453.4722222222222" y="620" as="targetPoint"/>
                        <Array as="points">
                            <mxPoint x="520" y="568"/>
                            <mxPoint x="360" y="568"/>
                            <mxPoint x="360" y="720"/>
                        </Array>
                    </mxGeometry>
                </mxCell>
                <mxCell id="52" value="&lt;i&gt;Command&lt;/i&gt;" style="swimlane;fontStyle=1;align=center;verticalAlign=top;childLayout=stackLayout;horizontal=1;startSize=26;horizontalStack=0;resizeParent=1;resizeParentMax=0;resizeLast=0;collapsible=1;marginBottom=0;fontSize=15;html=1;" vertex="1" parent="1">
                    <mxGeometry x="140" y="240" width="200" height="168" as="geometry"/>
                </mxCell>
                <mxCell id="53" value="- history: CommandHistory&lt;br&gt;# &lt;i&gt;cancellable: boolean&lt;br&gt;&lt;/i&gt;# args: any[]" style="text;strokeColor=none;fillColor=none;align=left;verticalAlign=top;spacingLeft=4;spacingRight=4;overflow=hidden;rotatable=0;points=[[0,0.5],[1,0.5]];portConstraint=eastwest;fontSize=15;html=1;" vertex="1" parent="52">
                    <mxGeometry y="26" width="200" height="64" as="geometry"/>
                </mxCell>
                <mxCell id="54" value="" style="line;strokeWidth=1;fillColor=none;align=left;verticalAlign=middle;spacingTop=-1;spacingLeft=3;spacingRight=3;rotatable=0;labelPosition=right;points=[];portConstraint=eastwest;strokeColor=inherit;fontSize=15;html=1;" vertex="1" parent="52">
                    <mxGeometry y="90" width="200" height="8" as="geometry"/>
                </mxCell>
                <mxCell id="55" value="+ execute(): void&lt;br&gt;# &lt;i&gt;_execute(): void&lt;/i&gt;&lt;br&gt;+ undo(): void" style="text;strokeColor=none;fillColor=none;align=left;verticalAlign=top;spacingLeft=4;spacingRight=4;overflow=hidden;rotatable=0;points=[[0,0.5],[1,0.5]];portConstraint=eastwest;fontSize=15;html=1;" vertex="1" parent="52">
                    <mxGeometry y="98" width="200" height="70" as="geometry"/>
                </mxCell>
                <mxCell id="56" value="&amp;lt;&amp;lt;Memento&amp;gt;&amp;gt;" style="swimlane;fontStyle=1;align=center;verticalAlign=top;childLayout=stackLayout;horizontal=1;startSize=26;horizontalStack=0;resizeParent=1;resizeParentMax=0;resizeLast=0;collapsible=1;marginBottom=0;fontSize=15;html=1;" vertex="1" parent="1">
                    <mxGeometry x="790" y="320" width="160" height="120" as="geometry"/>
                </mxCell>
                <mxCell id="58" value="" style="line;strokeWidth=1;fillColor=none;align=left;verticalAlign=middle;spacingTop=-1;spacingLeft=3;spacingRight=3;rotatable=0;labelPosition=right;points=[];portConstraint=eastwest;strokeColor=inherit;fontSize=15;html=1;" vertex="1" parent="56">
                    <mxGeometry y="26" width="160" height="8" as="geometry"/>
                </mxCell>
                <mxCell id="59" value="+ serialize(): JSON&lt;br&gt;+ deserialize(&lt;br&gt;&lt;span style=&quot;white-space: pre;&quot;&gt;&#9;&lt;/span&gt;obj: JSON&lt;br&gt;): Command" style="text;strokeColor=none;fillColor=none;align=left;verticalAlign=top;spacingLeft=4;spacingRight=4;overflow=hidden;rotatable=0;points=[[0,0.5],[1,0.5]];portConstraint=eastwest;fontSize=15;html=1;" vertex="1" parent="56">
                    <mxGeometry y="34" width="160" height="86" as="geometry"/>
                </mxCell>
                <mxCell id="60" value="" style="endArrow=block;dashed=1;endFill=0;endSize=12;html=1;fontSize=15;" edge="1" parent="1" source="12" target="56">
                    <mxGeometry width="160" relative="1" as="geometry">
                        <mxPoint x="780" y="470" as="sourcePoint"/>
                        <mxPoint x="940" y="470" as="targetPoint"/>
                    </mxGeometry>
                </mxCell>
                <mxCell id="63" value="Use" style="endArrow=open;endSize=12;dashed=1;html=1;fontSize=15;" edge="1" parent="1" source="56" target="52">
                    <mxGeometry width="160" relative="1" as="geometry">
                        <mxPoint x="560" y="460" as="sourcePoint"/>
                        <mxPoint x="720" y="460" as="targetPoint"/>
                    </mxGeometry>
                </mxCell>
                <mxCell id="64" value="SelectTextCommand" style="swimlane;fontStyle=1;align=center;verticalAlign=top;childLayout=stackLayout;horizontal=1;startSize=26;horizontalStack=0;resizeParent=1;resizeParentMax=0;resizeLast=0;collapsible=1;marginBottom=0;fontSize=15;html=1;" vertex="1" parent="1">
                    <mxGeometry x="100" y="574" width="180" height="104" as="geometry"/>
                </mxCell>
                <mxCell id="65" value="&amp;nbsp;- receiver: TextEditor&lt;br&gt;# cancellable: boolean" style="text;strokeColor=none;fillColor=none;align=left;verticalAlign=top;spacingLeft=4;spacingRight=4;overflow=hidden;rotatable=0;points=[[0,0.5],[1,0.5]];portConstraint=eastwest;fontSize=15;html=1;" vertex="1" parent="64">
                    <mxGeometry y="26" width="180" height="44" as="geometry"/>
                </mxCell>
                <mxCell id="66" value="" style="line;strokeWidth=1;fillColor=none;align=left;verticalAlign=middle;spacingTop=-1;spacingLeft=3;spacingRight=3;rotatable=0;labelPosition=right;points=[];portConstraint=eastwest;strokeColor=inherit;fontSize=15;html=1;" vertex="1" parent="64">
                    <mxGeometry y="70" width="180" height="8" as="geometry"/>
                </mxCell>
                <mxCell id="67" value="+ execute(): void" style="text;strokeColor=none;fillColor=none;align=left;verticalAlign=top;spacingLeft=4;spacingRight=4;overflow=hidden;rotatable=0;points=[[0,0.5],[1,0.5]];portConstraint=eastwest;fontSize=15;html=1;" vertex="1" parent="64">
                    <mxGeometry y="78" width="180" height="26" as="geometry"/>
                </mxCell>
                <mxCell id="68" value="" style="endArrow=open;endFill=1;endSize=12;html=1;fontSize=15;edgeStyle=orthogonalEdgeStyle;" edge="1" parent="1" source="64" target="22">
                    <mxGeometry width="160" relative="1" as="geometry">
                        <mxPoint x="100" y="574" as="sourcePoint"/>
                        <mxPoint x="575" y="790" as="targetPoint"/>
                        <Array as="points">
                            <mxPoint x="180" y="720"/>
                            <mxPoint x="565" y="720"/>
                        </Array>
                    </mxGeometry>
                </mxCell>
                <mxCell id="69" value="Extends" style="endArrow=block;endSize=16;endFill=0;html=1;fontSize=15;edgeStyle=orthogonalEdgeStyle;" edge="1" parent="1" source="64" target="52">
                    <mxGeometry width="160" relative="1" as="geometry">
                        <mxPoint x="130" y="470" as="sourcePoint"/>
                        <mxPoint x="350" y="300" as="targetPoint"/>
                        <Array as="points">
                            <mxPoint x="220" y="440"/>
                            <mxPoint x="380" y="440"/>
                            <mxPoint x="380" y="290"/>
                        </Array>
                    </mxGeometry>
                </mxCell>
            </root>
        </mxGraphModel>
    </diagram>
</mxfile>
